<svg xmlns="http://www.w3.org/2000/svg" width="31.007" height="30.061" viewBox="0 0 31.007 30.061">
  <path id="noun-add-to-cart-3424351" d="M97.611,11.657h-22.2L75.3,11.23h0A3.391,3.391,0,0,0,72.031,8.75H70v1.938h2.035a1.453,1.453,0,0,1,1.4,1.066L77.3,25.648a2.828,2.828,0,0,0,.2.543h-.242a3.391,3.391,0,0,0-.746,6.7,3.809,3.809,0,0,0-.591,2.025,3.876,3.876,0,1,0,7.219-1.938h5.814A3.875,3.875,0,1,0,92.3,31.035H77.263a1.453,1.453,0,1,1,0-2.907H94.375a3.381,3.381,0,0,0,3.217-2.316l3.236-9.689h0a3.391,3.391,0,0,0-3.217-4.467Zm-5.329,21.8a1.453,1.453,0,1,1-1.028.426A1.454,1.454,0,0,1,92.282,33.458Zm-12.48,0a1.453,1.453,0,1,1-1.028.426A1.453,1.453,0,0,1,79.8,33.458Zm10.542-12.6H87.922v2.422a.969.969,0,1,1-1.938,0V20.862H83.562a.969.969,0,1,1,0-1.938h2.422V16.5a.969.969,0,1,1,1.938,0v2.422h2.422a.969.969,0,1,1,0,1.938Z" transform="translate(-69.996 -8.75)"/>
</svg>
