<svg xmlns="http://www.w3.org/2000/svg" width="140.744" height="71.435" viewBox="0 0 140.744 71.435">
  <g id="noun-truck-delivery-4515136" transform="translate(-75.156 -140.511)">
    <path id="Path_1189" data-name="Path 1189" d="M398.582,329.8a11.484,11.484,0,1,0,11.484,11.484A11.481,11.481,0,0,0,398.582,329.8Zm0,17.641a6.161,6.161,0,1,1,6.161-6.161A6.16,6.16,0,0,1,398.582,347.441Z" transform="translate(-232.07 -140.822)" fill="#00b050"/>
    <path id="Path_1190" data-name="Path 1190" d="M137.732,329.8a11.484,11.484,0,1,0,11.484,11.484A11.484,11.484,0,0,0,137.732,329.8Zm0,17.641a6.161,6.161,0,1,1,6.161-6.161A6.164,6.164,0,0,1,137.732,347.441Z" transform="translate(-38.01 -140.822)" fill="#00b050"/>
    <path id="Path_1191" data-name="Path 1191" d="M326.01,154.1a2.247,2.247,0,0,1,2.24-2.24h11.009v-6.864a4.494,4.494,0,0,0-4.481-4.481H273.087a4.489,4.489,0,0,0-4.481,4.481v55.467h25.858a15.965,15.965,0,1,1,31.93,0h8.389a4.5,4.5,0,0,0,4.481-4.481v-13.2H328.249a2.24,2.24,0,1,1,0-4.481h11.009v-8.742H328.249a2.24,2.24,0,1,1,0-4.481h11.009v-8.742H328.249a2.241,2.241,0,0,1-2.24-2.24Z" transform="translate(-143.918)" fill="#3b3838"/>
    <path id="Path_1192" data-name="Path 1192" d="M562.868,184.82H544.551V189.3h18.317a2.24,2.24,0,1,0,0-4.481Z" transform="translate(-349.208 -32.964)" fill="#00b050"/>
    <path id="Path_1193" data-name="Path 1193" d="M554.526,240.941a2.24,2.24,0,1,0,0-4.481h-9.979v4.481Z" transform="translate(-349.205 -71.382)" fill="#00b050"/>
    <path id="Path_1194" data-name="Path 1194" d="M549.647,292.581a2.24,2.24,0,0,0,0-4.481h-5.095v4.481Z" transform="translate(-349.209 -109.799)" fill="#00b050"/>
    <path id="Path_1195" data-name="Path 1195" d="M88.707,231.573S79.732,235.391,78,236.13s-2.836,1.537-2.836,4.427v9.522c0,1.214-.273,3.513,3,3.513h5.6a15.965,15.965,0,1,1,31.93,0h4.526V211.933H97.687c-6.6,0-8.98,19.64-8.98,19.64Zm18.438-15.159v13.774H93.43c1-6.26,3.043-12.506,4.584-13.774Z" transform="translate(0 -53.135)" fill="#3b3838"/>
  </g>
</svg>
