<svg xmlns="http://www.w3.org/2000/svg" width="78.909" height="79.283" viewBox="0 0 78.909 79.283">
  <g id="noun-money-798457" transform="translate(-77.105 -6.051)">
    <path id="Path_1196" data-name="Path 1196" d="M127.727,67.521a9.448,9.448,0,0,0,9.482-8.971v-.129l9.2-10.332a5.563,5.563,0,0,1,7.644-.745,5.417,5.417,0,0,1,.631,7.732L136.317,76.128h0A12.882,12.882,0,0,1,126.6,80.54H99l-4.793,4.793-17.1-16.671,12.25-12.145a18.679,18.679,0,0,1,19.343-4.38l2.688.947h16.558a5.215,5.215,0,0,1,5.215,5.376,5.36,5.36,0,0,1-5.433,5.012h-9.935a2.024,2.024,0,1,0,0,4.048ZM117.7,28.787a28.953,28.953,0,0,0,4.17,1.943c.616.243,1.231.494,1.838.761h0a8.521,8.521,0,0,1,2.016,1.214,2.332,2.332,0,0,1-.559,4.13,6.618,6.618,0,0,1-3.481.454A16.193,16.193,0,0,1,116.1,35.62a2.648,2.648,0,0,0-1.206-.389c-.971,0-1.271.98-1.441,1.506-.316,1.012-.6,2.032-.874,3.053-.454,1.668-.17,2.291,1.393,3.053h0a19.3,19.3,0,0,0,5.409,1.555,4.488,4.488,0,0,1,.874.186,4.04,4.04,0,0,1,.073.948v2a1.814,1.814,0,0,0,1.9,1.927h3a1.741,1.741,0,0,0,1.829-1.895V44.8c0-.616.146-.81.81-1A10.529,10.529,0,0,0,133.33,40.3a9.668,9.668,0,0,0,2.056-7.967,10.33,10.33,0,0,0-5.223-7.068,44.187,44.187,0,0,0-4.7-2.138l-.616-.251h0a10.859,10.859,0,0,1-2.624-1.506,1.975,1.975,0,0,1-.809-1.773,2.031,2.031,0,0,1,1.3-1.538,4.247,4.247,0,0,1,1.522-.3,12.5,12.5,0,0,1,6.21,1.231c1.992.964,2.429-.486,2.591-1.1.267-.81.5-1.619.737-2.469l.275-.971h0a1.814,1.814,0,0,0-1.134-2.348,17.085,17.085,0,0,0-4.3-1.255c-1.336-.211-1.336-.211-1.336-1.555,0-2.826-.219-3.238-2.98-3.238h-1.49c-1.619.049-2.056.526-2.1,2.113V9.857c0,1.19,0,1.19-1.182,1.619-4.308,1.563-6.623,4.51-6.883,8.752-.235,3.571,1.425,6.388,5.044,8.558Z" transform="translate(0)" fill="#3b3838"/>
    <path id="Path_1243" data-name="Path 1243" d="M117.7,28.787a28.953,28.953,0,0,0,4.17,1.943c.616.243,1.231.494,1.838.761h0a8.521,8.521,0,0,1,2.016,1.214,2.332,2.332,0,0,1-.559,4.13,6.618,6.618,0,0,1-3.481.454A16.193,16.193,0,0,1,116.1,35.62a2.648,2.648,0,0,0-1.206-.389c-.971,0-1.271.98-1.441,1.506-.316,1.012-.6,2.032-.874,3.053-.454,1.668-.17,2.291,1.393,3.053h0a19.3,19.3,0,0,0,5.409,1.555,4.488,4.488,0,0,1,.874.186,4.04,4.04,0,0,1,.073.948v2a1.814,1.814,0,0,0,1.9,1.927h3a1.741,1.741,0,0,0,1.829-1.895V44.8c0-.616.146-.81.81-1A10.529,10.529,0,0,0,133.33,40.3a9.668,9.668,0,0,0,2.056-7.967,10.33,10.33,0,0,0-5.223-7.068,44.187,44.187,0,0,0-4.7-2.138l-.616-.251h0a10.859,10.859,0,0,1-2.624-1.506,1.975,1.975,0,0,1-.809-1.773,2.031,2.031,0,0,1,1.3-1.538,4.247,4.247,0,0,1,1.522-.3,12.5,12.5,0,0,1,6.21,1.231c1.992.964,2.429-.486,2.591-1.1.267-.81.5-1.619.737-2.469l.275-.971h0a1.814,1.814,0,0,0-1.134-2.348,17.085,17.085,0,0,0-4.3-1.255c-1.336-.211-1.336-.211-1.336-1.555,0-2.826-.219-3.238-2.98-3.238h-1.49c-1.619.049-2.056.526-2.1,2.113V9.857c0,1.19,0,1.19-1.182,1.619-4.308,1.563-6.623,4.51-6.883,8.752-.235,3.571,1.425,6.388,5.044,8.558Z" fill="#00b050"/>
  </g>
</svg>
