<svg id="Group_5" data-name="Group 5" xmlns="http://www.w3.org/2000/svg" width="29.632" height="29.284" viewBox="0 0 29.632 29.284">
  <path id="Path_2" data-name="Path 2" d="M3562.818-1250.545l-1.991,1.935-7.374-7.271,7.263-7.2,7.344,7.3-2.278,2c1.286,1.2,2.445,2.22,3.539,3.308,2.859,2.846,5.688,5.723,8.535,8.581a2.528,2.528,0,0,1,.866,2.095,2.107,2.107,0,0,1-1.451,1.852,2.082,2.082,0,0,1-2.342-.529q-4.631-4.64-9.272-9.271C3564.722-1248.681,3563.775-1249.6,3562.818-1250.545Z" transform="translate(-3549.103 1266.096)" fill="#00b050"/>
  <path id="Path_3" data-name="Path 3" d="M3524.532-1110.377c-.295-.271-.455-.4-.589-.545a1.474,1.474,0,0,1,.78-2.467,3.785,3.785,0,0,1,.8-.093c2.982-.007,5.965-.015,8.947,0,1.286.005,2.032.7,1.8,1.761a4.984,4.984,0,0,1-.84,1.359c.458,0,1,0,1.539,0a1.453,1.453,0,0,1,1.625,1.475,1.443,1.443,0,0,1-1.578,1.453q-7.063.011-14.127,0a1.469,1.469,0,0,1-1.633-1.481,1.479,1.479,0,0,1,1.653-1.46C3523.4-1110.383,3523.88-1110.377,3524.532-1110.377Z" transform="translate(-3521.258 1136.714)" fill="#00b050"/>
  <path id="Path_4" data-name="Path 4" d="M3623.487-1276.517l-7.486-7.448a12.455,12.455,0,0,1,1.427-1.216,1.278,1.278,0,0,1,1.654.277q2.718,2.7,5.4,5.426a1.406,1.406,0,0,1-.028,2.051C3624.137-1277.085,3623.773-1276.784,3623.487-1276.517Z" transform="translate(-3603.2 1285.377)" fill="#00b050"/>
  <path id="Path_5" data-name="Path 5" d="M3533.719-1201.179l7.447,7.417c-.992,1.457-2.033,2.065-3.315.706-1.627-1.724-3.339-3.368-5-5.065a1.386,1.386,0,0,1-.042-2.08C3533.118-1200.552,3533.445-1200.884,3533.719-1201.179Z" transform="translate(-3530.864 1212.555)" fill="#00b050"/>
</svg>
