<svg xmlns="http://www.w3.org/2000/svg" width="80.459" height="80.426" viewBox="0 0 80.459 80.426">
  <g id="Efficiency" transform="translate(-78.231 -8.235)">
    <path id="Path_1170" data-name="Path 1170" d="M156.09,41.237c-.856-.366-5.5-.489-7.456-5.134s1.344-8.189,1.711-8.923a3.869,3.869,0,0,0-.489-4.522L144.6,17.4a3.53,3.53,0,0,0-4.522-.489c-.856.366-4.156,3.667-8.923,1.589-4.644-1.956-4.767-6.722-5.134-7.456a3.779,3.779,0,0,0-3.667-2.811H114.9a3.543,3.543,0,0,0-3.545,2.811c-.366.733-.366,5.5-5.134,7.456s-8.189-1.344-9.045-1.589a3.89,3.89,0,0,0-4.522.489L87.4,22.657a3.53,3.53,0,0,0-.489,4.522c.366.856,3.667,4.278,1.589,8.923-1.956,4.646-6.6,4.768-7.456,5.135a3.668,3.668,0,0,0-2.811,3.544v7.456a3.669,3.669,0,0,0,2.811,3.545c.856.366,5.5.489,7.456,5.134s-1.344,8.067-1.589,8.923a3.869,3.869,0,0,0,.489,4.522l5.256,5.256a3.689,3.689,0,0,0,4.522.489c.856-.366,4.156-3.667,8.923-1.711,4.644,1.956,4.767,6.722,5.134,7.456a3.543,3.543,0,0,0,3.545,2.811h7.457a3.543,3.543,0,0,0,3.545-2.811c.366-.856.366-5.5,5.134-7.456,4.645-1.956,8.067,1.344,8.923,1.711a3.706,3.706,0,0,0,4.522-.489l5.256-5.256a3.53,3.53,0,0,0,.489-4.522c-.366-.856-3.545-4.156-1.711-8.923,1.956-4.644,6.722-4.767,7.456-5.134a3.543,3.543,0,0,0,2.811-3.545V44.782a3.135,3.135,0,0,0-2.566-3.545Zm-37.523,32.39A25.056,25.056,0,1,1,143.623,48.57,25.091,25.091,0,0,1,118.567,73.627Z" fill="#3b3838"/>
    <path id="Path_1171" data-name="Path 1171" d="M234.852,149.877A3.909,3.909,0,0,0,234,152.2c-.245,1.1-.489,2.078-.733,3.056a14.759,14.759,0,0,0-10.145,13.933,15.029,15.029,0,0,0,4.278,10.389A2.42,2.42,0,1,1,223.974,183a19.512,19.512,0,0,1,10.878-33.124Z" transform="translate(-119.22 -120.619)" fill="#00b050"/>
    <path id="Path_1172" data-name="Path 1172" d="M379.94,183.011a2.42,2.42,0,0,1-3.422-3.422,14.269,14.269,0,0,0,4.033-12.834,14.9,14.9,0,0,0-9.9-11.489c-.245-.856-.489-1.833-.733-2.811a5.118,5.118,0,0,0-.978-2.567,19.456,19.456,0,0,1,16.5,16.868,18.793,18.793,0,0,1-5.5,16.255Z" transform="translate(-247.561 -120.629)" fill="#00b050"/>
    <path id="Path_1173" data-name="Path 1173" d="M326.836,174.8a4.889,4.889,0,0,1-9.778,0c0-2.2,3.3-15.767,3.667-17.356a1.253,1.253,0,0,1,2.444,0c.489,1.956,3.667,15.278,3.667,17.356Z" transform="translate(-203.38 -126.234)" fill="#00b050"/>
  </g>
</svg>
