<svg xmlns="http://www.w3.org/2000/svg" width="33.315" height="42.539" viewBox="0 0 33.315 42.539">
  <g id="Group_9" data-name="Group 9" transform="translate(-946.96 -1032.489)">
    <g id="Group_11" data-name="Group 11" transform="translate(946.96 1032.489)">
      <path id="Path_10" data-name="Path 10" d="M5760.84,978.656c-.478-.027-1.229-.04-1.973-.119a5.645,5.645,0,0,1-4.176-2.461c-.874-1.25-1.639-2.576-2.439-3.876a1.691,1.691,0,0,1-.087-1.714q.789-1.55,1.654-3.06a1.745,1.745,0,0,1,1.359-.758,37.646,37.646,0,0,1,6.617-.546,5.847,5.847,0,0,1,3.659,1.21,10.669,10.669,0,0,1,2.662,3.111c.414.728.768,1.492,1.135,2.246a1.582,1.582,0,0,1-.01,1.5c-.464.878-.918,1.761-1.4,2.63a2.493,2.493,0,0,1-1.646,1.216A20.6,20.6,0,0,1,5760.84,978.656Zm.626-4.856v.009c.229,0,.459.007.688,0,.674-.026,1.012-.307.992-.816s-.395-.747-1.061-.724a7.22,7.22,0,0,1-1.553-.049,1.567,1.567,0,0,1-.851-.522,15.706,15.706,0,0,1-.921-1.423.772.772,0,0,0-1.074-.292.755.755,0,0,0-.239,1.082c.3.514.637,1.008.954,1.515a2.594,2.594,0,0,0,2.147,1.219C5760.853,973.82,5761.161,973.8,5761.466,973.8Z" transform="translate(-5736.358 -936.117)" fill="#3b3838"/>
      <path id="Path_11" data-name="Path 11" d="M5723.222,902.061c.128-.271.2-.413.263-.56a27.57,27.57,0,0,1,10.953-13.4c.375-.232.765-.438,1.182-.095s.255.729.119,1.134a34.569,34.569,0,0,0-1.74,8.938,21.632,21.632,0,0,0,1.576,9.454c.045.113.1.223.154.333a1,1,0,0,0,.111.138,2.207,2.207,0,0,0,.227-.268,9.89,9.89,0,0,0,1.383-7.821.727.727,0,0,1,.3-.882.757.757,0,0,1,.969.109,18.546,18.546,0,0,1,5.649,7.237,14.279,14.279,0,0,1-.2,11.679,1.957,1.957,0,0,1-.151.281c-.073.115-.156.222-.288.408a12.029,12.029,0,0,1-.955-.932c-.072-.085.014-.344.082-.5a13.022,13.022,0,0,0-2.022-13.914c-.457-.589-.968-1.135-1.455-1.7l-.11.042c-.009.125-.025.25-.025.375a12.349,12.349,0,0,1-2.813,7.7c-.458.592-1.007.554-1.4-.089a15.525,15.525,0,0,1-2.09-5.74c-.215-1.348-.3-2.719-.4-4.084a28.23,28.23,0,0,1,1.162-9.2c.019-.071.023-.146.053-.338-.274.2-.478.333-.667.485a27.981,27.981,0,0,0-6.437,7.533,30.957,30.957,0,0,0-2.607,5.741c-.135.382-.3.716-.764.737-.495.022-.68-.338-.849-.71a14.1,14.1,0,0,1-1.314-6.949.859.859,0,0,0-.222.1,22.293,22.293,0,0,0-5.8,8.92,14.593,14.593,0,0,0,.024,9.513.472.472,0,0,1-.169.626c-.256.193-.484.422-.727.633a1.833,1.833,0,0,1-.194.117c-.2-.589-.432-1.15-.593-1.728a16.725,16.725,0,0,1,1.229-12.1,27.468,27.468,0,0,1,7.125-8.837.74.74,0,0,1,.966-.1.718.718,0,0,1,.272.9,11.507,11.507,0,0,0-.045,6.207A5,5,0,0,0,5723.222,902.061Z" transform="translate(-5712.208 -887.821)" fill="#3b3838"/>
      <path id="Path_12" data-name="Path 12" d="M5720.405,962.457a17.145,17.145,0,0,1,5.08.67,4.985,4.985,0,0,1,1.3.786c.255.183.218.42.054.713-.539.958-1.065,1.927-1.525,2.925a3.536,3.536,0,0,0,.191,3.309c.081.148.16.3.241.444.451.816.46.824-.171,1.489a6.306,6.306,0,0,1-4.869,2.169,43.566,43.566,0,0,1-6.44-.564,2.035,2.035,0,0,1-1.62-1.13c-.417-.85-.839-1.7-1.234-2.56a1.806,1.806,0,0,1,.114-1.835c.882-1.373,1.673-2.811,2.64-4.121a5.477,5.477,0,0,1,4.355-2.207C5719.152,962.518,5719.779,962.487,5720.405,962.457Zm-.859,7.46a2.852,2.852,0,0,0,2.264-.675,17.373,17.373,0,0,0,1.519-2.061.72.72,0,0,0-.251-.97.764.764,0,0,0-1.029.165c-.105.13-.19.277-.287.415-1.111,1.569-.83,1.646-2.9,1.547a.763.763,0,0,0-.185,1.512A8.109,8.109,0,0,0,5719.546,969.917Z" transform="translate(-5711.22 -933.86)" fill="#3b3838"/>
      <path id="Path_13" data-name="Path 13" d="M5738.3,952.749c1.908-2.006,3.9-3.518,6.832-2.985a22.628,22.628,0,0,1,6.529,2.065,2.9,2.9,0,0,1,1.526,2.24,33.35,33.35,0,0,0-8.076.995c-1.258-1.775-3.286-1.843-5.2-2.164C5739.41,952.817,5738.905,952.8,5738.3,952.749Z" transform="translate(-5727.921 -925.964)" fill="#3b3838"/>
      <path id="Path_14" data-name="Path 14" d="M5725.174,948l-1.163.242a8.941,8.941,0,0,1-.666-3c-.041-.974.018-1.954.071-2.929a.584.584,0,1,1,1.159.135A11.806,11.806,0,0,0,5725.174,948Z" transform="translate(-5718.691 -921.103)" fill="#3b3838"/>
      <path id="Path_15" data-name="Path 15" d="M5785.082,954.278l-1.068-.446a8.936,8.936,0,0,0,.348-1.17q.257-1.625.438-3.261c.052-.476.194-.742.547-.764.375-.024.63.253.638.728A12.416,12.416,0,0,1,5785.082,954.278Z" transform="translate(-5756.123 -925.333)" fill="#3b3838"/>
    </g>
  </g>
</svg>
