<svg xmlns="http://www.w3.org/2000/svg" xmlns:xlink="http://www.w3.org/1999/xlink" width="117.873" height="115.682" viewBox="0 0 117.873 115.682">
  <defs>
    <linearGradient id="linear-gradient" x1="0.5" x2="0.5" y2="1" gradientUnits="objectBoundingBox">
      <stop offset="0" stop-color="#e4e4e4"/>
      <stop offset="1" stop-color="#fff"/>
    </linearGradient>
  </defs>
  <g id="Group_382" data-name="Group 382" transform="translate(0 0)">
    <path id="Path_925" data-name="Path 925" d="M62.2,91c10.274-10.27,18.973-1.654,22.638-15.444,8.28-31.15,42.616-30.846,47.131-8.688,8.136,39.928,43.566,14.571,43.3,43.168-.281,30.532-22.734,54.312-63,56.688C76.169,168.859,45.178,108.021,62.2,91Z" transform="translate(-57.401 -51.101)" fill="url(#linear-gradient)"/>
    <g id="Group_611" data-name="Group 611" transform="translate(855 -5976.015)">
      <path id="Path_1275" data-name="Path 1275" d="M183.972,46.668H122.52a5.858,5.858,0,0,0-5.852,5.852v61.452a5.858,5.858,0,0,0,5.852,5.852h61.452a5.858,5.858,0,0,0,5.852-5.852V52.52a5.858,5.858,0,0,0-5.852-5.852Zm2.926,67.3a2.93,2.93,0,0,1-2.926,2.926H122.52a2.93,2.93,0,0,1-2.926-2.926V67.883h67.3Zm0-49.016H119.593V52.52a2.93,2.93,0,0,1,2.926-2.926h61.452A2.93,2.93,0,0,1,186.9,52.52Z" transform="translate(-945.328 5967.332)" fill="#3b3838"/>
      <path id="Path_1276" data-name="Path 1276" d="M394.988,105H370.221a1.463,1.463,0,1,0,0,2.926h24.767a1.463,1.463,0,0,0,0-2.926Z" transform="translate(-1157.899 5918.145)" fill="#3b3838"/>
      <path id="Path_1277" data-name="Path 1277" d="M278.707,105h-3.658a1.463,1.463,0,1,0,0,2.926h3.658a1.463,1.463,0,1,0,0-2.926Z" transform="translate(-1077.647 5918.145)" fill="#3b3838"/>
      <path id="Path_1278" data-name="Path 1278" d="M219.207,105h-3.658a1.463,1.463,0,0,0,0,2.926h3.658a1.463,1.463,0,0,0,0-2.926Z" transform="translate(-1027.474 5918.145)" fill="#3b3838"/>
      <path id="Path_1279" data-name="Path 1279" d="M159.707,105h-3.658a1.463,1.463,0,0,0,0,2.926h3.658a1.463,1.463,0,0,0,0-2.926Z" transform="translate(-977.302 5918.145)" fill="#3b3838"/>
      <path id="Path_1280" data-name="Path 1280" d="M244.6,256.359h30.577a1.462,1.462,0,0,0,1.463-1.463A16.764,16.764,0,0,0,265.9,239.28a11.075,11.075,0,1,0-12.034,0A16.765,16.765,0,0,0,243.134,254.9a1.463,1.463,0,0,0,1.464,1.463ZM251.738,230a8.149,8.149,0,1,1,8.149,8.149A8.157,8.157,0,0,1,251.738,230Zm8.149,11.075a13.844,13.844,0,0,1,13.748,12.362h-27.5a13.844,13.844,0,0,1,13.748-12.362Z" transform="translate(-1051.969 5822.083)" fill="#3b3838"/>
    </g>
  </g>
</svg>
