<svg xmlns="http://www.w3.org/2000/svg" xmlns:xlink="http://www.w3.org/1999/xlink" width="117.873" height="115.682" viewBox="0 0 117.873 115.682">
  <defs>
    <linearGradient id="linear-gradient" x1="0.5" x2="0.5" y2="1" gradientUnits="objectBoundingBox">
      <stop offset="0" stop-color="#e4e4e4"/>
      <stop offset="1" stop-color="#fff"/>
    </linearGradient>
  </defs>
  <g id="Group_434" data-name="Group 434" transform="translate(-71.571 -87.617)">
    <g id="Background_Simple" data-name="Background Simple" transform="translate(71.571 87.617)">
      <g id="Group_382" data-name="Group 382" transform="translate(0)">
        <path id="Path_925" data-name="Path 925" d="M62.2,91c10.274-10.27,18.973-1.654,22.638-15.444,8.28-31.15,42.616-30.846,47.131-8.688,8.136,39.928,43.566,14.571,43.3,43.168-.281,30.532-22.734,54.312-63,56.688C76.169,168.859,45.178,108.021,62.2,91Z" transform="translate(-57.401 -51.101)" fill="url(#linear-gradient)"/>
        <path id="Union_5" data-name="Union 5" d="M-14723.562,97.747a5.447,5.447,0,0,1-5.438-5.442,5.432,5.432,0,0,1,4.661-5.364V83.753a4.669,4.669,0,0,1,4.661-4.665h37.289a4.669,4.669,0,0,1,4.66,4.665v3.189a5.432,5.432,0,0,1,4.661,5.364,5.447,5.447,0,0,1-5.437,5.442Zm-2.331-5.442a2.336,2.336,0,0,0,2.331,2.333h45.057a2.336,2.336,0,0,0,2.331-2.333,2.335,2.335,0,0,0-2.331-2.333h-45.057A2.335,2.335,0,0,0-14725.893,92.305Zm4.66-8.553v3.109h40.4V83.753a1.556,1.556,0,0,0-1.553-1.555h-37.289A1.557,1.557,0,0,0-14721.232,83.753Zm60.405-4.21-24.671-24.691-4.018,4.021.456.456a1.556,1.556,0,0,1,0,2.2l-4.662,4.664a1.549,1.549,0,0,1-1.1.456,1.547,1.547,0,0,1-1.1-.456l-17.09-17.1a1.554,1.554,0,0,1,0-2.2l4.66-4.664a1.551,1.551,0,0,1,2.2,0l.454.455,14.895-14.906-.455-.455a1.554,1.554,0,0,1,0-2.2l4.661-4.665a1.551,1.551,0,0,1,2.2,0l17.09,17.105a1.554,1.554,0,0,1,0,2.2l-4.661,4.664a1.548,1.548,0,0,1-1.1.455,1.548,1.548,0,0,1-1.1-.455l-.455-.455-4.018,4.021,24.67,24.689a4.632,4.632,0,0,1,1.366,3.3,4.639,4.639,0,0,1-1.366,3.3l-.268.265a4.638,4.638,0,0,1-3.295,1.364A4.645,4.645,0,0,1-14660.827,79.542Zm-22.476-26.888,24.673,24.689a1.552,1.552,0,0,0,2.2,0l.268-.266a1.546,1.546,0,0,0,.455-1.1,1.542,1.542,0,0,0-.455-1.1l-24.673-24.691Zm-26.411-4.665,14.895,14.906,2.464-2.466-14.894-14.906Zm6.215-3.111,11.787,11.8,14.894-14.906-11.786-11.8Zm15.536-18.66,14.895,14.906,2.465-2.466-14.894-14.906Zm-7.955,50.858a1.553,1.553,0,0,1,0-2.2l3.106-3.109a1.551,1.551,0,0,1,2.2,0,1.554,1.554,0,0,1,0,2.2l-3.107,3.109a1.547,1.547,0,0,1-1.1.455A1.546,1.546,0,0,1-14695.918,77.076Zm-12.43,0-3.108-3.111a1.553,1.553,0,0,1,0-2.2,1.551,1.551,0,0,1,2.2,0l3.108,3.111a1.553,1.553,0,0,1,0,2.2,1.551,1.551,0,0,1-1.1.455A1.546,1.546,0,0,1-14708.348,77.076Zm5.76-4.209V69.758a1.554,1.554,0,0,1,1.554-1.556,1.553,1.553,0,0,1,1.553,1.556v3.109a1.553,1.553,0,0,1-1.553,1.555A1.553,1.553,0,0,1-14702.588,72.867Z" transform="translate(14750 17.935)" fill="#3b3838"/>
      </g>
    </g>
  </g>
</svg>
