<svg xmlns="http://www.w3.org/2000/svg" xmlns:xlink="http://www.w3.org/1999/xlink" width="59" height="59" viewBox="0 0 59 59">
  <defs>
    <linearGradient id="linear-gradient" x1="0.5" y1="0.13" x2="0.5" y2="1" gradientUnits="objectBoundingBox">
      <stop offset="0" stop-color="#fc4905"/>
      <stop offset="1" stop-color="#fcb002"/>
    </linearGradient>
  </defs>
  <g id="Group_316" data-name="Group 316" transform="translate(-1105.882 -408.882)">
    <circle id="Ellipse_7" data-name="Ellipse 7" cx="29.5" cy="29.5" r="29.5" transform="translate(1105.882 408.882)" fill="url(#linear-gradient)"/>
    <g id="Group_5" data-name="Group 5" transform="translate(1120.391 421.903)">
      <path id="Path_2" data-name="Path 2" d="M3563.062-1250.217l-2.043,1.986-7.567-7.462c2.507-2.485,5.016-4.974,7.453-7.391l7.537,7.493-2.338,2.05c1.32,1.229,2.509,2.278,3.631,3.395,2.934,2.92,5.837,5.873,8.758,8.806a2.594,2.594,0,0,1,.889,2.15,2.162,2.162,0,0,1-1.489,1.9,2.136,2.136,0,0,1-2.4-.543q-4.752-4.762-9.515-9.513C3565.016-1248.3,3564.045-1249.25,3563.062-1250.217Z" transform="translate(-3548.989 1266.175)" fill="#fff"/>
      <path id="Path_3" data-name="Path 3" d="M3524.618-1110.3c-.3-.278-.467-.407-.6-.559a1.512,1.512,0,0,1,.8-2.531,3.889,3.889,0,0,1,.82-.1c3.06-.007,6.121-.015,9.181,0,1.32.006,2.085.717,1.85,1.807a5.12,5.12,0,0,1-.862,1.394c.469,0,1.024,0,1.579,0a1.491,1.491,0,0,1,1.668,1.513,1.481,1.481,0,0,1-1.619,1.492q-7.248.011-14.5,0a1.508,1.508,0,0,1-1.676-1.52,1.517,1.517,0,0,1,1.7-1.5C3523.451-1110.3,3523.949-1110.3,3524.618-1110.3Z" transform="translate(-3521.258 1137.322)" fill="#fff"/>
      <path id="Path_4" data-name="Path 4" d="M3623.683-1276.286l-7.682-7.643a12.734,12.734,0,0,1,1.465-1.248,1.311,1.311,0,0,1,1.7.284q2.789,2.766,5.543,5.568a1.443,1.443,0,0,1-.028,2.1C3624.35-1276.868,3623.976-1276.559,3623.683-1276.286Z" transform="translate(-3602.865 1285.377)" fill="#fff"/>
      <path id="Path_5" data-name="Path 5" d="M3533.755-1201.179l7.641,7.611c-1.018,1.495-2.086,2.119-3.4.725-1.67-1.769-3.426-3.457-5.125-5.2a1.422,1.422,0,0,1-.044-2.134C3533.137-1200.536,3533.473-1200.877,3533.755-1201.179Z" transform="translate(-3530.824 1212.852)" fill="#fff"/>
    </g>
  </g>
</svg>
