<svg xmlns="http://www.w3.org/2000/svg" width="86" height="68.257" viewBox="0 0 86 68.257">
  <g id="secured" transform="translate(-84 -68.881)">
    <path id="Path_1174" data-name="Path 1174" d="M97.4,246.762H108.08a9.867,9.867,0,0,1-.09-1.63v-3.259H97.4a6.929,6.929,0,1,0-6.518,9.415,6.991,6.991,0,0,0,6.518-4.526Z" transform="translate(0 -141.308)" fill="#3b3838"/>
    <path id="Path_1175" data-name="Path 1175" d="M402.37,78.3h8.419a6.882,6.882,0,0,0,6.428,4.436,6.925,6.925,0,1,0,0-13.851,6.83,6.83,0,0,0-6.428,4.436h-9.867a2.438,2.438,0,0,0-2.173,1.267l-5.069,9.505a13.318,13.318,0,0,0,4.526,1.9Z" transform="translate(-259.618 0)" fill="#3b3838"/>
    <path id="Path_1176" data-name="Path 1176" d="M124.479,84.228a6.792,6.792,0,0,0,6.428-4.436h8.419l4.165,7.876a12.56,12.56,0,0,0,4.526-1.9l-5.069-9.505a2.438,2.438,0,0,0-2.173-1.267H131a6.882,6.882,0,0,0-6.428-4.436,6.973,6.973,0,0,0-6.971,6.971,6.67,6.67,0,0,0,6.88,6.7Z" transform="translate(-28.167 -1.406)" fill="#3b3838"/>
    <path id="Path_1177" data-name="Path 1177" d="M143.671,383.04l-4.255,7.966H131a6.882,6.882,0,0,0-6.428-4.436A6.971,6.971,0,1,0,131,396.076h9.867a2.63,2.63,0,0,0,2.173-1.267l4.436-8.328a34.772,34.772,0,0,1-3.078-2.535,7.948,7.948,0,0,0-.725-.905Z" transform="translate(-28.167 -263.374)" fill="#3b3838"/>
    <path id="Path_1178" data-name="Path 1178" d="M484.241,236.879a6.912,6.912,0,0,0-6.518,4.436H467.132v3.259a9.859,9.859,0,0,1-.09,1.629h10.682a6.931,6.931,0,0,0,13.4-2.535,6.744,6.744,0,0,0-6.88-6.789Z" transform="translate(-321.121 -140.841)" fill="#3b3838"/>
    <path id="Path_1179" data-name="Path 1179" d="M420.6,386.571a6.83,6.83,0,0,0-6.428,4.436h-8.419l-4.255-7.966c-.272.272-.543.453-.815.724A25.308,25.308,0,0,1,397.6,386.3l4.436,8.328a2.438,2.438,0,0,0,2.173,1.267h9.867a6.882,6.882,0,0,0,6.428,4.436,6.974,6.974,0,0,0,6.971-6.971,6.746,6.746,0,0,0-6.881-6.789Z" transform="translate(-262.907 -263.374)" fill="#3b3838"/>
    <path id="Path_1180" data-name="Path 1180" d="M287.669,178.94V167.081a1.157,1.157,0,0,0-1-1.086c-9.777-1-12.673-6.7-12.764-6.88a1.1,1.1,0,0,0-1.992,0c-.09.272-2.987,5.884-12.764,6.88a1.157,1.157,0,0,0-1,1.086V178.94c0,11.316,13.669,18.377,14.213,18.739a.986.986,0,0,0,.453.09.68.68,0,0,0,.453-.09c.815-.362,14.393-7.423,14.393-18.739Zm-11.316,5.341a.868.868,0,0,1-.181.815.883.883,0,0,1-.815.362H270.47a1.63,1.63,0,0,1-.815-.362.923.923,0,0,1-.181-.815l1.539-5.884a3.977,3.977,0,0,1-2.173-3.531,3.983,3.983,0,1,1,7.967,0,3.977,3.977,0,0,1-2.173,3.531Z" transform="translate(-146.004 -75.116)" fill="#00b050"/>
  </g>
</svg>
