<svg xmlns="http://www.w3.org/2000/svg" width="286.291" height="794.474" viewBox="0 0 286.291 794.474">
  <g id="Group_632" data-name="Group 632" transform="translate(-1779.117 -1626.645)">
    <path id="Union_2" data-name="Union 2" d="M92.417,175.425l19.455-53.6-34.052,53.6-29.182-4.872L77.82,112.076,82.687,53.6l45.4-16.245-50.26,6.5L53.506,0h72.962l19.456,19.492,4.862,9.747,19.453,19.49-4.863,68.222-34.051,68.222Zm-58.369-9.75,9.727-48.729L29.185,160.8,0,131.563,14.591,19.49l8.724-4.371L19.455,73.091l10.828-61.46L43.774,4.87,68.1,48.727V97.456L43.774,165.675Z" transform="translate(1779.117 1751.15) rotate(-47)" fill="#f0f0f0"/>
    <g id="noun-charcoal-1184339" transform="translate(1802.068 1833.604)">
      <path id="Path_1161" data-name="Path 1161" d="M310.059,159.11l-3.273-21.27L275.7,144.384l1.635,16.364Z" transform="translate(-216.792 -96.12)" fill="#f0f0f0"/>
      <path id="Path_1162" data-name="Path 1162" d="M365.3,28l-45.4,13.294L284.3,70.541l30.271-7.976Z" transform="translate(-222.129 -28)" fill="#f0f0f0"/>
      <path id="Path_1163" data-name="Path 1163" d="M222.754,479.906l96.538-7.364L325.017,448,215.394,459.454Z" transform="translate(-179.392 -288.472)" fill="#f0f0f0"/>
      <path id="Path_1164" data-name="Path 1164" d="M122.77,427l7.364,19.431,28.428,19.633-7.976-19.633Z" transform="translate(-121.95 -275.448)" fill="#f0f0f0"/>
      <path id="Path_1165" data-name="Path 1165" d="M154.563,255.2l-21.348,36.011L151.9,303.058,213.057,210H178.492L120.61,283.22l6.779,4.3Z" transform="translate(-120.61 -140.871)" fill="#f0f0f0"/>
      <path id="Path_1166" data-name="Path 1166" d="M440.335,94.187l2.454-28.636L423.973,34.465,371,71.893l4.592,22.962,24.655-12.327L378.4,101.949l48.436,80.592,23.317-18.815Z" transform="translate(-275.896 -32.009)" fill="#f0f0f0"/>
      <path id="Path_1167" data-name="Path 1167" d="M327.694,300.9,281.267,224,224,311.741l78.792-8.236L290.47,266.541l18.176,36.351Z" transform="translate(-184.73 -149.553)" fill="#f0f0f0"/>
    </g>
    <path id="Union_3" data-name="Union 3" d="M92.416,175.425l19.455-53.6-34.052,53.6-29.182-4.872,29.182-58.477L82.687,53.6l45.4-16.245-50.261,6.5L53.5,0h72.962l19.456,19.492,4.862,9.747,19.453,19.49-4.863,68.222-34.05,68.222Zm-58.368-9.75,9.727-48.729L29.184,160.8,0,131.563,14.59,19.49l8.724-4.371L19.454,73.091l10.828-61.46L43.774,4.87,68.1,48.727V97.456L43.774,165.675Z" transform="matrix(-0.391, 0.921, -0.921, -0.391, 2065.408, 2052.636)" fill="#f0f0f0"/>
    <g id="noun-charcoal-1184339-2" data-name="noun-charcoal-1184339" transform="translate(2048.27 2310.989) rotate(140)">
      <path id="Path_1161-2" data-name="Path 1161" d="M34.36,21.271,31.087,0,0,6.544,1.635,22.908Z" transform="translate(58.907 41.721)" fill="#f0f0f0"/>
      <path id="Path_1162-2" data-name="Path 1162" d="M80.993,0l-45.4,13.294L0,42.541l30.271-7.976Z" transform="translate(62.176 0)" fill="#f0f0f0"/>
      <path id="Path_1163-2" data-name="Path 1163" d="M7.36,31.906,103.9,24.542,109.623,0,0,11.454Z" transform="translate(36.002 159.529)" fill="#f0f0f0"/>
      <path id="Path_1164-2" data-name="Path 1164" d="M0,0,7.364,19.431,35.792,39.063,27.815,19.431Z" transform="translate(0.821 151.552)" fill="#f0f0f0"/>
      <path id="Path_1165-2" data-name="Path 1165" d="M33.953,45.2,12.605,81.211,31.294,93.058,92.447,0H57.882L0,73.22l6.779,4.3Z" transform="translate(0 69.129)" fill="#f0f0f0"/>
      <path id="Path_1166-2" data-name="Path 1166" d="M69.334,59.723l2.454-28.636L52.971,0,0,37.428,4.592,60.39,29.247,48.063,7.4,67.484l48.436,80.592,23.317-18.815Z" transform="translate(95.106 2.456)" fill="#f0f0f0"/>
      <path id="Path_1167-2" data-name="Path 1167" d="M103.694,76.9,57.267,0,0,87.741,78.792,79.5,66.47,42.541,84.646,78.892Z" transform="translate(39.271 74.447)" fill="#f0f0f0"/>
    </g>
  </g>
</svg>
