<svg xmlns="http://www.w3.org/2000/svg" width="84.106" height="74.319" viewBox="0 0 84.106 74.319">
  <g id="Group_634" data-name="Group 634" transform="translate(-388 -2542.63)">
    <path id="Path_1240" data-name="Path 1240" d="M148.592,59.8h-.537a36.1,36.1,0,0,0-72.018,0H75.5a5.388,5.388,0,0,0-5.507,5.262V75.586A5.388,5.388,0,0,0,75.5,80.848h8.948V59.8H78.676a33.468,33.468,0,0,1,66.74,0h-5.773V80.848h4.9a20.942,20.942,0,0,1-13.328,13.789,3.946,3.946,0,1,0,.5,2.6,23.991,23.991,0,0,0,15.544-16.392h1.341a5.389,5.389,0,0,0,5.507-5.262V65.063a5.388,5.388,0,0,0-5.507-5.262Z" transform="translate(318.007 2516.37)" fill="#3b3838"/>
    <path id="Path_1241" data-name="Path 1241" d="M225.094,162.506q1.672-1.7,3.364-3.437a3.509,3.509,0,0,0,.294-4.8l-1.707-2.246a19.373,19.373,0,0,0,.913-2.232q1.432-.205,2.868-.418a3.472,3.472,0,0,0,3.063-3.539v-5.008a3.475,3.475,0,0,0-3.071-3.537l-2.864-.42a19.166,19.166,0,0,0-1.085-2.589l1.668-2.289a3.5,3.5,0,0,0-.412-4.8c-1.138-1.12-2.293-2.254-3.452-3.389a3.581,3.581,0,0,0-4.776-.284s-1.555,1.179-2.251,1.711a19.088,19.088,0,0,0-2.23-.91c-.117-.814-.42-2.86-.42-2.86a3.475,3.475,0,0,0-3.548-3.081h-4.974a3.481,3.481,0,0,0-3.549,3.048s-.341,2.341-.418,2.892a19.409,19.409,0,0,0-2.59,1.085c-.725-.533-1.488-1.089-2.3-1.681a3.574,3.574,0,0,0-4.71.361c-.8.807-3.441,3.509-3.441,3.509a3.518,3.518,0,0,0-.29,4.8s1.39,1.832,1.706,2.246a19.266,19.266,0,0,0-.911,2.23l-2.867.42a3.486,3.486,0,0,0-3.065,3.568v4.95a3.488,3.488,0,0,0,3.083,3.569l2.848.416a19.448,19.448,0,0,0,1.089,2.588c-.377.513-1.67,2.292-1.67,2.292a3.474,3.474,0,0,0,.4,4.785c.864.85,3.471,3.4,3.471,3.4a3.509,3.509,0,0,0,4.784.276l2.243-1.7a18.526,18.526,0,0,0,2.231.91c.093.664.415,2.852.415,2.852a3.5,3.5,0,0,0,3.552,3.088h4.976A3.48,3.48,0,0,0,215,165.233c.143-.969.283-1.93.421-2.892a19.562,19.562,0,0,0,2.588-1.086l2.269,1.661a3.567,3.567,0,0,0,4.817-.41Zm-16.132-8.428A10.745,10.745,0,1,1,219.7,143.333,10.752,10.752,0,0,1,208.962,154.078Z" transform="translate(221.092 2438.099)" fill="#3b3838"/>
    <path id="Path_1242" data-name="Path 1242" d="M306.746,233.47a7.652,7.652,0,1,0,7.648,7.652A7.657,7.657,0,0,0,306.746,233.47Z" transform="translate(123.308 2340.31)" fill="#00b050"/>
  </g>
</svg>
