<svg xmlns="http://www.w3.org/2000/svg" width="68.205" height="68.257" viewBox="0 0 68.205 68.257">
  <g id="noun-b2b-4158034" transform="translate(-87.499 -17.711)">
    <path id="Path_1181" data-name="Path 1181" d="M398.86,36.22a2.274,2.274,0,0,0-3.069-.94l-6.415,3.41a2.274,2.274,0,0,0-.878,3.183l4.141,6.82h0a2.274,2.274,0,1,0,3.887-2.36L395.5,44.646c7.348,3.9,10.442,9.238,10.442,17.65a2.273,2.273,0,1,0,4.547,0c0-10.543-4.367-17.518-14.014-22.236l1.439-.765h0a2.273,2.273,0,0,0,.941-3.075Z" transform="translate(-261.61 -15.057)" fill="#00b050"/>
    <path id="Path_1182" data-name="Path 1182" d="M151.636,325.844a2.274,2.274,0,0,0,3.069.94l6.415-3.41a2.274,2.274,0,0,0,.878-3.183l-4.141-6.82h0a2.274,2.274,0,1,0-3.887,2.36l1.023,1.688c-7.348-3.9-10.442-9.238-10.442-17.65a2.273,2.273,0,1,0-4.547,0c0,10.543,4.367,17.518,14.014,22.236l-1.439.765h0a2.273,2.273,0,0,0-.941,3.075Z" transform="translate(-45.683 -243.436)" fill="#00b050"/>
    <path id="Path_1183" data-name="Path 1183" d="M90.909,50.729h27.282a3.42,3.42,0,0,0,3.41-3.41v-20.7a3.421,3.421,0,0,0-3.41-3.41h-5.366V20.616a3.154,3.154,0,0,0-3.342-2.9H99.617a3.154,3.154,0,0,0-3.342,2.9v2.592H90.909a3.421,3.421,0,0,0-3.41,3.41v20.7a3.42,3.42,0,0,0,3.41,3.41Zm7.639-30.113c0-.284.466-.625,1.069-.625h9.867c.6,0,1.069.341,1.069.625v2.592h-12ZM89.773,38.576h4.092V37.519A1.137,1.137,0,0,1,95,36.383h4.24a1.137,1.137,0,0,1,1.137,1.137v1.057h8.344V37.519a1.137,1.137,0,0,1,1.137-1.137h4.24a1.137,1.137,0,0,1,1.137,1.137v1.057h4.092V40.85h-4.092v.25a3.257,3.257,0,1,1-6.513,0v-.25h-8.344v.25a3.257,3.257,0,1,1-6.513,0v-.25H89.773Z" transform="translate(0)" fill="#3b3838"/>
    <path id="Path_1184" data-name="Path 1184" d="M269.344,182.368a.99.99,0,0,0,.989-.989v-2.444h-1.966v2.444a.988.988,0,0,0,.977.989Z" transform="translate(-157.37 -140.278)"/>
    <path id="Path_1185" data-name="Path 1185" d="M154.986,182.368a.988.988,0,0,0,.977-.989v-2.444H154v2.444a.99.99,0,0,0,.989.989Z" transform="translate(-57.858 -140.278)"/>
    <path id="Path_1186" data-name="Path 1186" d="M380.691,294.457h-5.366v-2.592a3.154,3.154,0,0,0-3.342-2.9h-9.867a3.154,3.154,0,0,0-3.342,2.9v2.592h-5.366a3.421,3.421,0,0,0-3.41,3.41v20.7a3.42,3.42,0,0,0,3.41,3.41h27.282a3.42,3.42,0,0,0,3.41-3.41v-20.7a3.421,3.421,0,0,0-3.41-3.41Zm-19.643-2.592c0-.284.466-.625,1.069-.625h9.867c.6,0,1.069.341,1.069.625v2.592h-12Zm20.78,20.234h-4.092v.25a3.257,3.257,0,1,1-6.513,0v-.25h-8.344v.25a3.257,3.257,0,1,1-6.513,0v-.25h-4.092v-2.273h4.092v-1.057a1.137,1.137,0,0,1,1.137-1.137h4.24a1.137,1.137,0,0,1,1.137,1.137v1.057h8.344v-1.057a1.137,1.137,0,0,1,1.137-1.137h4.24a1.137,1.137,0,0,1,1.137,1.137v1.057h4.092Z" transform="translate(-228.397 -236.011)" fill="#3b3838"/>
    <path id="Path_1187" data-name="Path 1187" d="M530.86,452.632a.983.983,0,1,0,1.966,0v-2.444H530.86Z" transform="translate(-385.762 -376.292)"/>
    <path id="Path_1188" data-name="Path 1188" d="M416.5,452.632a.983.983,0,1,0,1.966,0v-2.444H416.5Z" transform="translate(-286.259 -376.292)"/>
  </g>
</svg>
