<svg xmlns="http://www.w3.org/2000/svg" xmlns:xlink="http://www.w3.org/1999/xlink" width="117.873" height="115.682" viewBox="0 0 117.873 115.682">
  <defs>
    <linearGradient id="linear-gradient" x1="0.5" x2="0.5" y2="1" gradientUnits="objectBoundingBox">
      <stop offset="0" stop-color="#e4e4e4"/>
      <stop offset="1" stop-color="#fff"/>
    </linearGradient>
  </defs>
  <g id="Group_434" data-name="Group 434" transform="translate(-71.571 -87.617)">
    <g id="Background_Simple" data-name="Background Simple" transform="translate(71.571 87.617)">
      <g id="Group_382" data-name="Group 382" transform="translate(0)">
        <path id="Path_925" data-name="Path 925" d="M62.2,91c10.274-10.27,18.973-1.654,22.638-15.444,8.28-31.15,42.616-30.846,47.131-8.688,8.136,39.928,43.566,14.571,43.3,43.168-.281,30.532-22.734,54.312-63,56.688C76.169,168.859,45.178,108.021,62.2,91Z" transform="translate(-57.401 -51.101)" fill="url(#linear-gradient)"/>
        <g id="Group_606" data-name="Group 606" transform="translate(-158.228 42.277)">
          <path id="Path_1306" data-name="Path 1306" d="M224.881,80.577l21.5-14.473a1.348,1.348,0,0,0,.593-1.116V42.707a1.348,1.348,0,0,0-.024-.191c0-.029-.005-.058-.011-.086a1.306,1.306,0,0,0-.176-.429c-.008-.012-.008-.027-.016-.038s-.028-.023-.038-.038a1.287,1.287,0,0,0-.336-.336h0l-.007,0L235.621,34.43l0,0-10.744-7.152a1.338,1.338,0,0,0-1.488,0L201.892,41.583a.018.018,0,0,0-.007,0h0a1.306,1.306,0,0,0-.336.336c-.011.015-.028.022-.038.038s-.008.026-.016.038a1.331,1.331,0,0,0-.176.429c-.005.028-.007.056-.011.086a1.277,1.277,0,0,0-.024.191V64.987a1.347,1.347,0,0,0,.593,1.116l21.5,14.473a1.488,1.488,0,0,0,.149.071,1.241,1.241,0,0,0,1.2,0,1.152,1.152,0,0,0,.149-.07ZM243.2,42.708,224.13,55.4l-8.324-5.542,19.075-12.7Zm-17.731,34.23v-19.2l18.812-12.522V64.277ZM224.13,30.01l8.324,5.542-19.075,12.7-8.324-5.542ZM203.973,61.675l5.146,3.464a1.344,1.344,0,0,0,1.5-2.23l-6.647-4.475v-.571l2.952,1.987a1.345,1.345,0,0,0,1.5-2.231l-4.39-2.955c-.02-.013-.043-.015-.065-.027V45.216L222.786,57.74v19.2L203.974,64.275Z" transform="translate(-6.965 -32.952)" fill="#3b3838"/>
          <path id="Path_1307" data-name="Path 1307" d="M506.544,172.9a3.79,3.79,0,0,0-3.778-3.665h-.01a3.817,3.817,0,0,0-3.781,3.92l.036.4a3.7,3.7,0,0,0-1.284-.055,3.8,3.8,0,0,0-3.222,4.286,1.3,1.3,0,0,0,.067.271l6.511,17.974,0,7.475a1.425,1.425,0,0,0-.011.169.57.57,0,0,1-.566.574h0a.559.559,0,0,1-.4-.166.567.567,0,0,1-.168-.4,1.134,1.134,0,0,0-.01-.157v-4.062a1.367,1.367,0,0,0-.011-.164c-.259-2.127-1.936-6.144-6.418-6.144h-.012a1.344,1.344,0,0,0-1.338,1.249c-.038.521-.9,12.809.055,17a35.6,35.6,0,0,0,2.9,6.223v.993l-1.578,0a1.345,1.345,0,0,0-1.341,1.347l.01,5.385a1.345,1.345,0,0,0,1.344,1.343h0l13.825-.022a1.344,1.344,0,0,0,1.342-1.345l-.008-5.386a1.34,1.34,0,0,0-.4-.951,1.325,1.325,0,0,0-.816-.365,23.784,23.784,0,0,0,1.923-3.937c1.161-4.1.949-12.293.719-16.812-.31-6.117-3.294-23.323-3.584-24.979Zm-9.385,4.4a1.109,1.109,0,0,1,.949-1.14,1.088,1.088,0,0,1,1.23.868l.562,6.034.224,2.42ZM494.877,224l0-2.7,11.136-.017.005,2.7Zm11.946-10.049a32.939,32.939,0,0,1-2.437,4.649l-1.911,0-4.684.007v-1.343a1.334,1.334,0,0,0-.176-.662,36.229,36.229,0,0,1-2.788-5.8c-.633-2.79-.336-10.606-.09-14.77,1.962.7,2.424,2.995,2.5,3.511v4.125a1.246,1.246,0,0,0,.016.2,3.258,3.258,0,0,0,3.246,3.056h0a3.26,3.26,0,0,0,3.245-3.043,1.313,1.313,0,0,0,.019-.219v-8.006l-1.758-18.946c0-.015-.008-.028-.011-.041l-.34-3.653a1.1,1.1,0,0,1,1.1-1.108.954.954,0,0,1,.773.32,1.105,1.105,0,0,1,.325.786,1.283,1.283,0,0,0,.02.231c.032.185,3.253,18.625,3.564,24.759.18,3.509.478,12.078-.619,15.944Z" transform="translate(-252.816 -153.292)" fill="#3b3838"/>
          <path id="Path_1308" data-name="Path 1308" d="M105.59,211.411c.951-4.2.093-16.483.055-17.006a1.4,1.4,0,0,0-1.35-1.249c-4.483,0-6.159,4.017-6.418,6.144a1.364,1.364,0,0,0-.011.164v4.061a1.26,1.26,0,0,0-.01.158.569.569,0,0,1-.168.4.563.563,0,0,1-.4.166h0a.571.571,0,0,1-.565-.574,1.462,1.462,0,0,0-.011-.17l-.01-7.459,6.517-17.987a1.4,1.4,0,0,0,.067-.271,3.8,3.8,0,0,0-3.221-4.286,3.679,3.679,0,0,0-1.293.051l.049-.521a3.8,3.8,0,0,0-3.782-3.8h-.01a3.79,3.79,0,0,0-3.78,3.665c-.289,1.654-3.273,18.861-3.585,24.983-.23,4.519-.442,12.713.719,16.812a23.583,23.583,0,0,0,1.923,3.936,1.325,1.325,0,0,0-.816.365,1.341,1.341,0,0,0-.4.951l-.008,5.385a1.344,1.344,0,0,0,1.342,1.345l13.825.022h0a1.344,1.344,0,0,0,1.344-1.343l.01-5.385a1.345,1.345,0,0,0-1.341-1.347l-1.578,0v-.993a35.7,35.7,0,0,0,2.9-6.222ZM98.445,177.1a1.1,1.1,0,0,1,1.083-.952,1.172,1.172,0,0,1,.16.012,1.106,1.106,0,0,1,.946,1.138l-2.965,8.186.734-7.925Zm4.471,46.909L91.778,224l.005-2.7,11.136.017Zm-7.6-5.4-1.911,0a33.11,33.11,0,0,1-2.437-4.648c-1.1-3.866-.8-12.435-.62-15.941.312-6.133,3.533-24.573,3.564-24.759a1.372,1.372,0,0,0,.02-.231,1.105,1.105,0,0,1,.325-.786,1.088,1.088,0,0,1,.773-.32h0a1.1,1.1,0,0,1,1.1.982l-.358,3.855c0,.01-.005.019-.007.028l-1.747,18.88c0,.012,0,.023,0,.034l-.008.091,0,7.881a1.316,1.316,0,0,0,.019.219,3.26,3.26,0,0,0,3.243,3.043h0a3.258,3.258,0,0,0,3.248-3.053,1.287,1.287,0,0,0,.016-.2v-4.127c.07-.452.521-2.8,2.5-3.507.246,4.164.542,11.978-.09,14.77a36.391,36.391,0,0,1-2.788,5.8,1.33,1.33,0,0,0-.176.663v1.343Z" transform="translate(89.352 -153.3)" fill="#3b3838"/>
        </g>
      </g>
    </g>
  </g>
</svg>
