<svg xmlns="http://www.w3.org/2000/svg" xmlns:xlink="http://www.w3.org/1999/xlink" width="117.873" height="115.682" viewBox="0 0 117.873 115.682">
  <defs>
    <linearGradient id="linear-gradient" x1="0.5" x2="0.5" y2="1" gradientUnits="objectBoundingBox">
      <stop offset="0" stop-color="#e4e4e4"/>
      <stop offset="1" stop-color="#fff" stop-opacity="0"/>
    </linearGradient>
  </defs>
  <g id="Group_434" data-name="Group 434" transform="translate(-71.571 -87.617)">
    <g id="Background_Simple" data-name="Background Simple" transform="translate(71.571 87.617)">
      <g id="Group_382" data-name="Group 382" transform="translate(0)">
        <path id="Path_925" data-name="Path 925" d="M62.2,91c10.274-10.27,18.973-1.654,22.638-15.444,8.28-31.15,42.616-30.846,47.131-8.688,8.136,39.928,43.566,14.571,43.3,43.168-.281,30.532-22.734,54.312-63,56.688C76.169,168.859,45.178,108.021,62.2,91Z" transform="translate(-57.401 -51.101)" fill="url(#linear-gradient)"/>
        <path id="Path_1314" data-name="Path 1314" d="M121.981,114.807h66.771a4.276,4.276,0,0,0,4.165-5.1L181.32,53a4.27,4.27,0,0,0-4.167-3.4h-6.262c-2.221-18.83-28.836-18.758-31.046,0h-6.264a4.27,4.27,0,0,0-4.167,3.4l-11.6,56.706a4.277,4.277,0,0,0,4.165,5.1Zm33.385-76.553A12.826,12.826,0,0,1,168.048,49.6h-5.735a7.1,7.1,0,0,0-13.893,0h-5.733a12.776,12.776,0,0,1,12.68-11.341Zm-3.947,11.2a4.253,4.253,0,0,1,7.939.142h-7.984c.023-.047.023-.1.046-.142Zm-19.23,4.111a1.418,1.418,0,0,1,1.39-1.134h7.61c11.2.011,24.784,0,35.963,0a1.418,1.418,0,0,1,1.39,1.134l11.6,56.706a1.426,1.426,0,0,1-1.388,1.7H121.982a1.418,1.418,0,0,1-1.388-1.7ZM143.237,64.4h0a4.883,4.883,0,1,0-4.228-2.442,4.884,4.884,0,0,0,4.228,2.442Zm0-6.929h0a2.047,2.047,0,1,1-2.047,2.047,2.047,2.047,0,0,1,2.047-2.047ZM167.5,64.4a4.883,4.883,0,1,0-4.228-2.442A4.882,4.882,0,0,0,167.5,64.4Zm0-6.929h0a2.047,2.047,0,1,1-2.047,2.047,2.048,2.048,0,0,1,2.047-2.047Z" transform="translate(-102.582 0.875)" fill="#3b3838"/>
      </g>
    </g>
  </g>
</svg>
