<svg xmlns="http://www.w3.org/2000/svg" xmlns:xlink="http://www.w3.org/1999/xlink" width="117.873" height="115.682" viewBox="0 0 117.873 115.682">
  <defs>
    <linearGradient id="linear-gradient" x1="0.5" x2="0.5" y2="1" gradientUnits="objectBoundingBox">
      <stop offset="0" stop-color="#e4e4e4"/>
      <stop offset="1" stop-color="#fff" stop-opacity="0"/>
    </linearGradient>
  </defs>
  <g id="Group_434" data-name="Group 434" transform="translate(-71.571 -87.617)">
    <g id="Background_Simple" data-name="Background Simple" transform="translate(71.571 87.617)">
      <g id="Group_382" data-name="Group 382" transform="translate(0)">
        <path id="Path_925" data-name="Path 925" d="M62.2,91c10.274-10.27,18.973-1.654,22.638-15.444,8.28-31.15,42.616-30.846,47.131-8.688,8.136,39.928,43.566,14.571,43.3,43.168-.281,30.532-22.734,54.312-63,56.688C76.169,168.859,45.178,108.021,62.2,91Z" transform="translate(-57.401 -51.101)" fill="url(#linear-gradient)"/>
        <g id="Group_610" data-name="Group 610" transform="translate(-101.069 36.385)">
          <path id="Path_1288" data-name="Path 1288" d="M201.36,497.838A1.16,1.16,0,0,0,202.522,499h29.487a1.161,1.161,0,0,0,0-2.323H202.522a1.17,1.17,0,0,0-1.161,1.161Z" transform="translate(-61.964 -426.36)" fill="#3b3838"/>
          <path id="Path_1289" data-name="Path 1289" d="M191.71,50.431a.527.527,0,0,0-.015-.155l-.031-26.328a4.27,4.27,0,0,0-4.274-4.259h-5.962V5.208a5.218,5.218,0,0,0-5.2-5.219H134.378a5.218,5.218,0,0,0-5.2,5.219v68.87a5.221,5.221,0,0,0,5.219,5.219h41.845a5.221,5.221,0,0,0,5.219-5.219V59.365l6.024-.015a4.27,4.27,0,0,0,4.259-4.274Zm-2.369-15.456H154.65V28.609h34.675Zm-1.967-12.962a1.937,1.937,0,0,1,1.936,1.936v2.323H154.65V22.043Zm-46.491-19.7H169.72V5.751a1.675,1.675,0,0,1-1.673,1.673H142.556a1.675,1.675,0,0,1-1.673-1.673ZM179.1,74.063a2.875,2.875,0,0,1-2.881,2.881H134.379a2.875,2.875,0,0,1-2.881-2.881V5.209a2.875,2.875,0,0,1,2.881-2.881h4.166V5.766a4.005,4.005,0,0,0,4,4h25.491a4.005,4.005,0,0,0,4-4V2.313h4.166a2.875,2.875,0,0,1,2.881,2.881V19.674l-24.453.031V17.336a1.162,1.162,0,0,0-2.323,0V62.092a1.162,1.162,0,0,0,2.323,0V59.4l24.453-.031v14.7Zm8.347-17.051-32.786.046V37.314h34.69l.016,15.068a.635.635,0,0,0,.016.17v2.524a1.937,1.937,0,0,1-1.936,1.936Z" fill="#3b3838"/>
          <path id="Path_1290" data-name="Path 1290" d="M446.1,302.75h-9.184a2.485,2.485,0,0,0-2.478,2.478v4.553a2.485,2.485,0,0,0,2.478,2.478H446.1a2.485,2.485,0,0,0,2.478-2.478v-4.553A2.465,2.465,0,0,0,446.1,302.75Zm.155,7.031a.155.155,0,0,1-.155.155h-9.184a.155.155,0,0,1-.155-.155v-4.553a.155.155,0,0,1,.155-.155H446.1a.155.155,0,0,1,.155.155Z" transform="translate(-262.043 -259.892)" fill="#3b3838"/>
        </g>
      </g>
    </g>
  </g>
</svg>
